<mxfile host="app.diagrams.net" modified="2025-02-20T05:51:15.950Z" agent="Mozilla/5.0 (Windows NT 10.0; Win64; x64) AppleWebKit/537.36 (KHTML, like Gecko) Chrome/133.0.0.0 Safari/537.36" version="24.2.5" etag="yFxDsdIsHcZEEFkXg8m6" type="github">
  <diagram name="第 1 页" id="9AbFuNn6isC8OYAl83xY">
    <mxGraphModel>
      <root>
        <mxCell id="0" />
        <mxCell id="1" parent="0" />
      </root>
    </mxGraphModel>
  </diagram>
</mxfile>
